# xmcd
#
# Track frame offsets:
#	150
#	21892
#	38340
#	57605
#	72650
#	89325
#	107237
#	120222
#	137472
#	150420
#	165047
#	177815
#	193752
#	211025
#
# Disc length: 2981
#
# Revision: 3
# Processed by: cddbd v1.5.1PL0 Copyright (c) Steve Scherf et al.
# Submitted via: EasyCD 2.21 - (C) 1996 Greg Leichner
# Normalized: r1:TDELIM( - ),TSWAP
#
DISCID=ab0ba30e
DTITLE=Various Artist - Country Friends - Disk 3
DYEAR=1900
DGENRE=Country
TTITLE0=Willie Nelson - City of New Orleans
TTITLE1=Dolly Parton - Save the Last Dance for Me
TTITLE2=Ronnie Milsap - Lost in the Fifties Tonight
TTITLE3=Jimmy Buffet - Margaritaville
TTITLE4=Waylon Jennings - Rose in Paradise
TTITLE5=Lee Greenwood - The Wind Beneath My Wings
TTITLE6=Alabama - Here We Are
TTITLE7=Don Williams - Heartbeat In the Darkness
TTITLE8=Merle Haggard - Sea of Heartbreak
TTITLE9=George Jones - She Loved a Lot in Her Time
TTITLE10=Charley Pride - Mountain of Love
TTITLE11=George Strait - The Chill of an Early Fall
TTITLE12=Conway Twitty - Julia
TTITLE13=Glen Cambell - I Remember You
EXTD=
EXTT0=
EXTT1=
EXTT2=
EXTT3=
EXTT4=
EXTT5=
EXTT6=
EXTT7=
EXTT8=
EXTT9=
EXTT10=
EXTT11=
EXTT12=
EXTT13=
PLAYORDER=
